<svg version="1.1" preserveAspectRatio="none" xmlns="http://www.w3.org/2000/svg" width="500" height="500" viewBox="0 0 500 500"><rect width="100%" height="100%" fill="#FFFFFF" fill-opacity="1"/><svg viewBox="-2.1269 181.2332 544.7214 118.56" width="333" height="72.47829808044993" x="83.5px" y="213.7609px" xmlns="http://www.w3.org/2000/svg" xmlns:xlink="http://www.w3.org/1999/xlink" preserveAspectRatio="none"><defs></defs><style>.companyName {fill:#4D4D4D;fill-opacity:1;}.icon1 {fill:#FF834F;fill-opacity:1;}.icon2 {fill:#FF4949;fill-opacity:1;}.icon3 {fill:#FFAE78;fill-opacity:1;}.icon3-str {stroke:#FFAE78;stroke-opacity:1;}.shapeStroke-str {stroke:#313131;stroke-opacity:1;}.text {fill:#4D4D4D;fill-opacity:1;}</style><g opacity="1" transform="rotate(0 -2.1269 193.2332)">
<svg width="113.9386" height="94.56" x="-2.1269" y="193.2332" version="1.1" preserveAspectRatio="none" viewBox="0.5 11.30000114440918 127.00000762939453 105.4000015258789">
  <g transform="matrix(1 0 0 1 0 0)" class="icon1"><g><path d="M5.7,32.3c0.4,0,0.8-0.3,0.8-0.8V19.7c0-0.4-0.3-0.8-0.8-0.8s-0.8,0.3-0.8,0.8v11.8C4.9,31.9,5.2,32.3,5.7,32.3z"></path><path d="M5.7,40c0.4,0,0.8-0.3,0.8-0.8v-3.8c0-0.4-0.3-0.8-0.8-0.8S4.9,35,4.9,35.4v3.8C4.9,39.6,5.2,40,5.7,40z"></path><path d="M115.4,54.4c0-0.4-0.3-0.8-0.8-0.8c-0.4,0-0.8,0.3-0.8,0.8v11.8c0,0.4,0.3,0.8,0.8,0.8c0.4,0,0.8-0.3,0.8-0.8V54.4z"></path><path d="M114.7,69.3c-0.4,0-0.8,0.3-0.8,0.8v3.8c0,0.4,0.3,0.8,0.8,0.8c0.4,0,0.8-0.3,0.8-0.8v-3.8   C115.4,69.7,115.1,69.3,114.7,69.3z"></path><path d="M71.4,15.8c0.1,0.1,0.3,0.2,0.5,0.2c0.2,0,0.4-0.1,0.5-0.2c0.3-0.3,0.3-0.8,0-1.1l-1.6-1.6c-0.3-0.3-0.8-0.3-1.1,0   c-0.3,0.3-0.3,0.8,0,1.1L71.4,15.8z"></path><path d="M76.7,21c0.1,0.1,0.3,0.2,0.5,0.2c0.2,0,0.4-0.1,0.5-0.2c0.3-0.3,0.3-0.8,0-1.1l-1.6-1.6c-0.3-0.3-0.8-0.3-1.1,0   c-0.3,0.3-0.3,0.8,0,1.1L76.7,21z"></path><path d="M70.3,21.3c0.2,0,0.4-0.1,0.5-0.2l1.6-1.6c0.3-0.3,0.3-0.8,0-1.1c-0.3-0.3-0.8-0.3-1.1,0L69.8,20c-0.3,0.3-0.3,0.8,0,1.1   C70,21.2,70.2,21.3,70.3,21.3z"></path><path d="M75.6,16c0.2,0,0.4-0.1,0.5-0.2l1.6-1.6c0.3-0.3,0.3-0.8,0-1.1c-0.3-0.3-0.8-0.3-1.1,0l-1.6,1.6c-0.3,0.3-0.3,0.8,0,1.1   C75.2,15.9,75.4,16,75.6,16z"></path><path d="M111.8,107.2c-0.3-0.3-0.8-0.3-1.1,0c-0.3,0.3-0.3,0.8,0,1.1l1.6,1.6c0.1,0.1,0.3,0.2,0.5,0.2c0.2,0,0.4-0.1,0.5-0.2   c0.3-0.3,0.3-0.8,0-1.1L111.8,107.2z"></path><path d="M117,112.4c-0.3-0.3-0.8-0.3-1.1,0c-0.3,0.3-0.3,0.8,0,1.1l1.6,1.6c0.1,0.1,0.3,0.2,0.5,0.2c0.2,0,0.4-0.1,0.5-0.2   c0.3-0.3,0.3-0.8,0-1.1L117,112.4z"></path><path d="M112.3,112.4l-1.6,1.6c-0.3,0.3-0.3,0.8,0,1.1c0.1,0.1,0.3,0.2,0.5,0.2c0.2,0,0.4-0.1,0.5-0.2l1.6-1.6   c0.3-0.3,0.3-0.8,0-1.1C113.1,112.1,112.6,112.1,112.3,112.4z"></path><path d="M117.6,107.2l-1.6,1.6c-0.3,0.3-0.3,0.8,0,1.1c0.1,0.1,0.3,0.2,0.5,0.2c0.2,0,0.4-0.1,0.5-0.2l1.6-1.6   c0.3-0.3,0.3-0.8,0-1.1C118.4,106.9,117.9,106.9,117.6,107.2z"></path><path d="M14,55.6c0.1,0.1,0.3,0.2,0.5,0.2c0.2,0,0.4-0.1,0.5-0.2c0.3-0.3,0.3-0.8,0-1.1l-1.6-1.6c-0.3-0.3-0.8-0.3-1.1,0   c-0.3,0.3-0.3,0.8,0,1.1L14,55.6z"></path><path d="M18.7,58.1c-0.3-0.3-0.8-0.3-1.1,0c-0.3,0.3-0.3,0.8,0,1.1l1.6,1.6c0.1,0.1,0.3,0.2,0.5,0.2c0.2,0,0.4-0.1,0.5-0.2   c0.3-0.3,0.3-0.8,0-1.1L18.7,58.1z"></path><path d="M12.9,61.1c0.2,0,0.4-0.1,0.5-0.2l1.6-1.6c0.3-0.3,0.3-0.8,0-1.1c-0.3-0.3-0.8-0.3-1.1,0l-1.6,1.6c-0.3,0.3-0.3,0.8,0,1.1   C12.6,61,12.7,61.1,12.9,61.1z"></path><path d="M20.3,52.9c-0.3-0.3-0.8-0.3-1.1,0l-1.6,1.6c-0.3,0.3-0.3,0.8,0,1.1c0.1,0.1,0.3,0.2,0.5,0.2c0.2,0,0.4-0.1,0.5-0.2   l1.6-1.6C20.6,53.7,20.6,53.2,20.3,52.9z"></path><path d="M38.6,19.1c2.1,0,3.9-1.7,3.9-3.9c0-2.1-1.7-3.9-3.9-3.9c-2.1,0-3.9,1.7-3.9,3.9C34.7,17.4,36.4,19.1,38.6,19.1z    M38.6,12.9c1.3,0,2.4,1.1,2.4,2.4c0,1.3-1.1,2.4-2.4,2.4c-1.3,0-2.4-1.1-2.4-2.4C36.2,14,37.3,12.9,38.6,12.9z"></path><path d="M72,104.2c-2.1,0-3.9,1.7-3.9,3.9c0,2.1,1.7,3.9,3.9,3.9c2.1,0,3.9-1.7,3.9-3.9C75.8,105.9,74.1,104.2,72,104.2z M72,110.4   c-1.3,0-2.4-1.1-2.4-2.4c0-1.3,1.1-2.4,2.4-2.4c1.3,0,2.4,1.1,2.4,2.4C74.3,109.3,73.3,110.4,72,110.4z"></path><path d="M93.5,15.3h12.8c0.4,0,0.8-0.3,0.8-0.8s-0.3-0.8-0.8-0.8H93.5c-0.4,0-0.8,0.3-0.8,0.8S93.1,15.3,93.5,15.3z"></path><path d="M110.5,15.3h4.1c0.4,0,0.8-0.3,0.8-0.8s-0.3-0.8-0.8-0.8h-4.1c-0.4,0-0.8,0.3-0.8,0.8S110.1,15.3,110.5,15.3z"></path><path d="M114.7,18.2h-8.9c-0.4,0-0.8,0.3-0.8,0.8c0,0.4,0.3,0.8,0.8,0.8h8.9c0.4,0,0.8-0.3,0.8-0.8   C115.4,18.5,115.1,18.2,114.7,18.2z"></path><path d="M99,18.2c-0.4,0-0.8,0.3-0.8,0.8c0,0.4,0.3,0.8,0.8,0.8h2.9c0.4,0,0.8-0.3,0.8-0.8c0-0.4-0.3-0.8-0.8-0.8H99z"></path><path d="M33.9,115.1H21.1c-0.4,0-0.8,0.3-0.8,0.8s0.3,0.8,0.8,0.8h12.8c0.4,0,0.8-0.3,0.8-0.8S34.4,115.1,33.9,115.1z"></path><path d="M16.9,115.1h-4.1c-0.4,0-0.8,0.3-0.8,0.8s0.3,0.8,0.8,0.8h4.1c0.4,0,0.8-0.3,0.8-0.8S17.4,115.1,16.9,115.1z"></path><path d="M12.8,112.2h8.9c0.4,0,0.8-0.3,0.8-0.8c0-0.4-0.3-0.8-0.8-0.8h-8.9c-0.4,0-0.8,0.3-0.8,0.8C12,111.9,12.4,112.2,12.8,112.2   z"></path><path d="M28.5,112.2c0.4,0,0.8-0.3,0.8-0.8c0-0.4-0.3-0.8-0.8-0.8h-2.9c-0.4,0-0.8,0.3-0.8,0.8c0,0.4,0.3,0.8,0.8,0.8H28.5z"></path><path d="M19.6,38.8c1.9,0,3.6-1.4,3.9-3.3h29.7C44.4,39,38.1,47.5,37.8,57.2h-2.4c-0.4,0-0.8,0.3-0.8,0.8v6.3   c0,0.4,0.3,0.8,0.8,0.8h6.3c0.4,0,0.8-0.3,0.8-0.8V58c0-0.4-0.3-0.8-0.8-0.8h-2.4c0.4-10.6,8.1-19.6,18.5-21.4V38   c0,0.4,0.3,0.8,0.8,0.8h6.3c0.4,0,0.8-0.3,0.8-0.8v-2.1c10.4,1.8,18.3,10.8,18.6,21.4h-2.5c-0.4,0-0.8,0.3-0.8,0.8v6.3   c0,0.4,0.3,0.8,0.8,0.8h6.3c0.4,0,0.8-0.3,0.8-0.8V58c0-0.4-0.3-0.8-0.8-0.8h-2.3c-0.3-9.8-6.6-18.3-15.4-21.7h29.9   c0.4,1.8,2,3.3,3.9,3.3c2.2,0,4-1.8,4-4c0-2.2-1.8-4-4-4c-1.9,0-3.6,1.4-3.9,3.3H65.7v-2.4c0-0.4-0.3-0.8-0.8-0.8h-6.3   c-0.4,0-0.8,0.3-0.8,0.8v2.4H23.5c-0.4-1.8-2-3.3-3.9-3.3c-2.2,0-4,1.8-4,4C15.6,37,17.4,38.8,19.6,38.8z M40.9,63.6h-4.8v-4.8h4.8   V63.6z M87.4,63.6h-4.8v-4.8h4.8V63.6z M104.1,32.3c1.4,0,2.5,1.1,2.5,2.5c0,1.4-1.1,2.5-2.5,2.5c-1.4,0-2.5-1.1-2.5-2.5   C101.6,33.4,102.7,32.3,104.1,32.3z M64.2,32.4v4.8h-4.8v-2.4c0,0,0,0,0,0c0,0,0,0,0,0v-2.4H64.2z M19.6,32.3   c1.4,0,2.5,1.1,2.5,2.5c0,1.4-1.1,2.5-2.5,2.5c-1.4,0-2.5-1.1-2.5-2.5C17.1,33.4,18.2,32.3,19.6,32.3z"></path><path d="M127.1,85.4L100.9,72c-0.1-0.1-0.2-0.1-0.4-0.1c0,0-0.1,0-0.1,0H89H21.7h-0.5H8.6c-4.5,0-8.1,3.6-8.1,8.1v12.1   c0,4.5,3.6,8.1,8.1,8.1H21h0.7h67.5h11.3c0,0,0.1,0,0.1,0c0,0,0,0,0,0c0.1,0,0.2,0,0.3-0.1l26.2-13.4c0.3-0.1,0.4-0.4,0.4-0.7   C127.5,85.8,127.3,85.5,127.1,85.4z M118.8,89.3l-18.4,9.4h-0.2c0-0.1,0-0.1,0-0.2c0-1.8-0.9-3.3-2.3-4.2c1.4-0.9,2.3-2.4,2.3-4.2   c0-1.8-0.9-3.3-2.3-4.2c1.4-0.9,2.3-2.4,2.3-4.2c0-1.8-0.9-3.3-2.3-4.2c1.4-0.9,2.3-2.4,2.3-4.2c0-0.1,0-0.1,0-0.2h0.2l18.4,9.4   c0,0,0,0,0,0L118.8,89.3C118.8,89.2,118.8,89.3,118.8,89.3z M95.1,93.6h-4.6H20.2c-0.6-2.2-0.9-4.5-0.9-6.8h72c0,0,0,0,0,0h3.8   c0,0,0.1,0,0.1,0c0,0,0.1,0,0.1,0c1.9,0,3.4,1.5,3.4,3.4c0,1.9-1.5,3.4-3.4,3.4C95.2,93.6,95.2,93.6,95.1,93.6   C95.2,93.6,95.1,93.6,95.1,93.6z M12.8,98.7c-3.1-8.2-3.1-17.1,0-25.3h7.7c-0.5,1.1-1,2.3-1.3,3.6h0L19,77.5c0,0,0,0,0,0l-0.3,1h0   c-0.6,2.2-0.9,4.5-1,6.8h0v0.8l0,0.8h0c0,2.3,0.3,4.6,0.9,6.8h0l0.3,0.9l0,0c0,0,0,0,0,0l0.2,0.5h0c0.4,1.2,0.8,2.4,1.3,3.6H12.8z    M90.4,78.5h4.7c0,0,0.1,0,0.1,0c0,0,0.1,0,0.1,0c1.9,0,3.4,1.5,3.4,3.4c0,1.9-1.5,3.4-3.4,3.4c0,0-0.1,0-0.1,0c0,0-0.1,0-0.1,0H92   v0h-0.8h-72c0.1-2.3,0.4-4.6,1-6.8H90.4z M22.1,73.4H89h9.7c0,0.1,0,0.1,0,0.2c0,1.9-1.5,3.4-3.4,3.4c0,0-0.1,0-0.1,0   c0,0-0.1,0-0.1,0h-4.7H20.7C21.1,75.8,21.6,74.6,22.1,73.4z M2,92.1V80c0-3.6,3-6.6,6.6-6.6h2.6c-3,8.2-3,17.1,0,25.3H8.6   C5,98.7,2,95.8,2,92.1z M22,98.7c-0.5-1.2-1-2.4-1.4-3.6h69.9h4.6c0,0,0,0,0.1,0c0,0,0.1,0,0.1,0c1.9,0,3.4,1.5,3.4,3.4   c0,0.1,0,0.1,0,0.2h-9.6H22z M120.3,88.5v-4.9l4.8,2.5L120.3,88.5z"></path></g></g>
</svg>
</g><g opacity="1" transform="rotate(0 145.8117 256.2332)">
<svg width="92.973" height="16.56" x="145.8117" y="256.2332" version="1.1" preserveAspectRatio="none" viewBox="3.76 -28 157.20000000000002 28">
  <g transform="matrix(1 0 0 1 0 0)" class="text"><path id="id-6izo4zJp5" d="M23.44-28L28.64-28L28.64 0L23.44 0L23.44-12L8.96-12L8.96 0L3.76 0L3.76-28L8.96-28L8.96-16.44L23.44-16.44L23.44-28Z M59.88-28L65.04-28L65.04 0L60.76 0L45.32-18.96L45.32 0L40.16 0L40.16-28L44.44-28L59.88-9.04L59.88-28Z M97-23.64L81.76-23.64L81.76-15.12L95.28-15.12L95.28-10.72L81.76-10.72L81.76 0L76.56 0L76.56-28L97-28L97-23.64Z M129.08-28L118.12-9.88L118.12 0L112.92 0L112.92-9.80L101.92-28L107.48-28L115.68-14.36L123.96-28L129.08-28Z M155.80-28L160.96-28L160.96 0L156.68 0L141.24-18.96L141.24 0L136.08 0L136.08-28L140.36-28L155.80-9.04L155.80-28Z"/></g>
</svg>
</g><g opacity="1" transform="rotate(0 145.8117 208.2332)">
<svg width="396.7828" height="36" x="145.8117" y="208.2332" version="1.1" preserveAspectRatio="none" viewBox="3.32 -28 308.6 28">
  <g transform="matrix(1 0 0 1 0 0)" class="companyName"><path id="id-D6z1nYkh11" d="M22.52-28L29-28L29 0L22.52 0L22.52-11.48L9.80-11.48L9.80 0L3.32 0L3.32-28L9.80-28L9.80-16.96L22.52-16.96L22.52-28Z M54.92-28L61.32-28L61.32 0L56 0L42.04-17L42.04 0L35.64 0L35.64-28L41-28L54.92-11L54.92-28Z M89.12-22.80L74.44-22.80L74.44-15.40L87.40-15.40L87.40-10.20L74.44-10.20L74.44 0L67.96 0L67.96-28L89.12-28L89.12-22.80Z M117.84-28L106.96-9.92L106.96 0L100.48 0L100.48-10L89.64-28L96.52-28L104-15.56L111.48-28L117.84-28Z M139.76 0L137.28-6L124.28-6L121.80 0L115.16 0L127.64-28L134.04-28L146.56 0L139.76 0ZM126.36-10.92L135.24-10.92L130.80-21.64L126.36-10.92Z M181.36-14.56Q183.76-13.80 185.12-12.02Q186.48-10.24 186.48-7.64L186.48-7.64Q186.48-3.96 183.62-1.98Q180.76 0 175.28 0L175.28 0L160.80 0L160.80-28L174.48-28Q179.60-28 182.34-26.04Q185.08-24.08 185.08-20.72L185.08-20.72Q185.08-18.68 184.10-17.08Q183.12-15.48 181.36-14.56L181.36-14.56ZM173.68-23.12L167.24-23.12L167.24-16.52L173.68-16.52Q176.08-16.52 177.32-17.36Q178.56-18.20 178.56-19.84L178.56-19.84Q178.56-21.48 177.32-22.30Q176.08-23.12 173.68-23.12L173.68-23.12ZM174.80-4.88Q177.36-4.88 178.66-5.72Q179.96-6.56 179.96-8.32L179.96-8.32Q179.96-11.80 174.80-11.80L174.80-11.80L167.24-11.80L167.24-4.88L174.80-4.88Z M216.20 0L209.24 0L203.84-7.80L203.52-7.80L197.88-7.80L197.88 0L191.40 0L191.40-28L203.52-28Q207.24-28 209.98-26.76Q212.72-25.52 214.20-23.24Q215.68-20.96 215.68-17.84L215.68-17.84Q215.68-14.72 214.18-12.46Q212.68-10.20 209.92-9L209.92-9L216.20 0ZM209.12-17.84Q209.12-20.20 207.60-21.46Q206.08-22.72 203.16-22.72L203.16-22.72L197.88-22.72L197.88-12.96L203.16-12.96Q206.08-12.96 207.60-14.24Q209.12-15.52 209.12-17.84L209.12-17.84Z M241.72 0L239.24-6L226.24-6L223.76 0L217.12 0L229.60-28L236.00-28L248.52 0L241.72 0ZM228.32-10.92L237.20-10.92L232.76-21.64L228.32-10.92Z M270.72-28L277.12-28L277.12 0L271.80 0L257.84-17L257.84 0L251.44 0L251.44-28L256.80-28L270.72-11L270.72-28Z M283.76 0L283.76-28L296.48-28Q301.04-28 304.54-26.26Q308.04-24.52 309.98-21.36Q311.92-18.20 311.92-14L311.92-14Q311.92-9.80 309.98-6.64Q308.04-3.48 304.54-1.74Q301.04 0 296.48 0L296.48 0L283.76 0ZM290.24-5.32L296.16-5.32Q300.36-5.32 302.86-7.66Q305.36-10 305.36-14L305.36-14Q305.36-18 302.86-20.34Q300.36-22.68 296.16-22.68L296.16-22.68L290.24-22.68L290.24-5.32Z"/></g>
</svg>
</g><g opacity="1" transform="rotate(0 125.8117 181.2332)">
<svg width="4" height="118.56" x="125.8117" y="181.2332" version="1.1" preserveAspectRatio="none" viewBox="0 0 4 118.56">
  <defs><rect x="0" y="0" width="4" height="118.56" rx="0px" ry="0px" id="id-tBXipXk0b1733665292965"></rect></defs><use class="companyName shapeStroke-str" style="stroke-width:0;" xlink:href="#id-tBXipXk0b1733665292965"></use>
</svg>
</g></svg></svg>